<?xml version="1.0" encoding="UTF-8"?>
<svg id="Logo" xmlns="http://www.w3.org/2000/svg" version="1.1" xmlns:xlink="http://www.w3.org/1999/xlink" viewBox="0 0 225 60">
  <!-- Generator: Adobe Illustrator 29.2.0, SVG Export Plug-In . SVG Version: 2.1.0 Build 108)  -->
  <defs>
    <style>
      .st0 {
        fill: #25204d;
      }

      .st1 {
        stroke: #25204d;
        stroke-miterlimit: 10;
        stroke-width: 3px;
      }

      .st1, .st2 {
        fill: none;
      }

      .st3 {
        fill: #e20613;
      }

      .st4 {
        clip-path: url(#clippath);
      }
    </style>
    <clipPath id="clippath">
      <rect class="st2" x="194.62" y="9.45" width="25.38" height="42.46"/>
    </clipPath>
  </defs>
  <g>
    <path class="st0" d="M42.62,27.01c-.17-.97-.97-2.48-3.2-2.48-1.66,0-2.76,1.07-2.76,2.24,0,.97.62,1.74,1.91,1.99l2.46.47c3.2.62,4.92,2.71,4.92,5.19,0,2.71-2.26,5.44-6.36,5.44-4.67,0-6.73-3.01-7.01-5.51l3.18-.84c.15,1.74,1.37,3.3,3.85,3.3,1.84,0,2.86-.92,2.86-2.16,0-1.02-.77-1.81-2.14-2.09l-2.46-.5c-2.81-.57-4.62-2.38-4.62-5.04,0-3.13,2.81-5.51,6.14-5.51,4.27,0,5.91,2.58,6.31,4.57l-3.08.94Z"/>
    <path class="st0" d="M50.19,21.2c1.14,0,2.04.92,2.04,2.06s-.89,2.01-2.04,2.01-2.04-.92-2.04-2.01.92-2.06,2.04-2.06ZM48.55,39.48v-12.22h3.3v12.22h-3.3Z"/>
    <path class="st0" d="M63.88,37.82c-.52,1.17-1.79,2.01-3.43,2.01-3.6,0-5.99-2.81-5.99-6.51s2.34-6.41,5.89-6.41c2.19,0,3.2,1.17,3.5,1.86v-1.52h3.2v10.01c0,1.09.07,1.94.1,2.21h-3.15c-.05-.27-.12-.92-.12-1.52v-.15ZM60.85,36.98c1.71,0,3.01-1.42,3.01-3.65s-1.27-3.55-3.01-3.55-3.06,1.32-3.06,3.55,1.27,3.65,3.06,3.65Z"/>
    <path class="st0" d="M88.08,39.48v-7.3h-7.68v7.3h-3.43v-17.61h3.43v7.08h7.68v-7.08h3.45v17.61h-3.45Z"/>
    <path class="st0" d="M103.65,37.82c-.52,1.17-1.79,2.01-3.43,2.01-3.6,0-5.99-2.81-5.99-6.51s2.34-6.41,5.89-6.41c2.19,0,3.2,1.17,3.5,1.86v-1.52h3.2v10.01c0,1.09.07,1.94.1,2.21h-3.15c-.05-.27-.12-.92-.12-1.52v-.15ZM100.62,36.98c1.71,0,3.01-1.42,3.01-3.65s-1.27-3.55-3.01-3.55-3.06,1.32-3.06,3.55,1.27,3.65,3.06,3.65Z"/>
    <path class="st0" d="M110.36,39.48v-17.98h3.25v7.1c.55-.87,1.89-1.66,3.7-1.66,3.58,0,5.64,2.76,5.64,6.38s-2.29,6.46-5.76,6.46c-1.69,0-2.98-.75-3.63-1.79v1.49h-3.2ZM116.62,29.9c-1.66,0-3.06,1.22-3.06,3.45s1.39,3.48,3.06,3.48,3.03-1.24,3.03-3.48-1.34-3.45-3.03-3.45Z"/>
    <path class="st0" d="M127.2,21.2c1.14,0,2.04.92,2.04,2.06s-.89,2.01-2.04,2.01-2.04-.92-2.04-2.01.92-2.06,2.04-2.06ZM125.56,39.48v-12.22h3.3v12.22h-3.3Z"/>
    <path class="st0" d="M136.47,27.26h2.46v2.93h-2.46v5.12c0,1.07.5,1.42,1.44,1.42.4,0,.84-.05,1.02-.1v2.73c-.3.12-.89.3-1.86.3-2.38,0-3.88-1.42-3.88-3.78v-5.69h-2.21v-2.93h.62c1.29,0,1.89-.84,1.89-1.94v-1.71h2.98v3.65Z"/>
    <path class="st0" d="M150.15,37.82c-.52,1.17-1.79,2.01-3.43,2.01-3.6,0-5.99-2.81-5.99-6.51s2.34-6.41,5.89-6.41c2.19,0,3.2,1.17,3.5,1.86v-1.52h3.2v10.01c0,1.09.07,1.94.1,2.21h-3.15c-.05-.27-.12-.92-.12-1.52v-.15ZM147.12,36.98c1.71,0,3.01-1.42,3.01-3.65s-1.27-3.55-3.01-3.55-3.06,1.32-3.06,3.55,1.27,3.65,3.06,3.65Z"/>
    <path class="st0" d="M160.93,27.26h2.46v2.93h-2.46v5.12c0,1.07.5,1.42,1.44,1.42.4,0,.84-.05,1.02-.1v2.73c-.3.12-.89.3-1.86.3-2.38,0-3.88-1.42-3.88-3.78v-5.69h-2.21v-2.93h.62c1.29,0,1.89-.84,1.89-1.94v-1.71h2.98v3.65Z"/>
  </g>
  <g>
    <path class="st3" d="M11.52,27.19c-.69,0-1.36.08-2,.23-.63-.91-1.43-1.35-2.39-1.35-2.79,0-4.16,4.48-4.35,9.25-.02.21-.03.42-.03.64v12.33h0s8.76,3.4,8.76,3.4v-11.78c0-3.98-.24-7.05-.74-9.28.25-.03.5-.05.75-.05,2.97,0,5.39,2.42,5.39,5.39v12.33h3.38v-12.33c0-4.84-3.93-8.77-8.77-8.77Z"/>
    <path class="st3" d="M11.52,23.82c3.9,0,7.07-3.17,7.07-7.07s-3.17-7.07-7.07-7.07-7.07,3.17-7.07,7.07,3.17,7.07,7.07,7.07ZM11.52,13.06c2.03,0,3.69,1.65,3.69,3.69s-1.65,3.69-3.69,3.69-3.69-1.65-3.69-3.69,1.65-3.69,3.69-3.69Z"/>
  </g>
  <line class="st1" x1="179.32" y1="10.28" x2="179.32" y2="53.36"/>
  <g>
    <path d="M203.93,33.67h4.82c1.66,0,2.71-1.01,2.71-2.59,0-1.88-1.52-2.41-3.14-2.41h-4.39v5h0ZM203.93,27.06h3.85c2.19,0,3.08-.79,3.08-2.31,0-2-1.42-2.29-3.08-2.29h-3.85v4.59h0ZM202.01,20.84h5.24c1.28,0,2.96,0,3.83.53.95.57,1.7,1.6,1.7,3.02,0,1.54-.81,2.69-2.15,3.24v.04c1.78.36,2.75,1.7,2.75,3.48,0,2.12-1.52,4.15-4.39,4.15h-6.98v-14.45h0Z"/>
    <path d="M207.31,15.4c-6.99,0-12.66,5.67-12.66,12.66s5.67,12.66,12.66,12.66,12.66-5.67,12.66-12.66-5.67-12.66-12.66-12.66h0ZM218.3,28.07c0,6.07-4.92,10.99-10.99,10.99s-10.99-4.92-10.99-10.99,4.92-10.99,10.99-10.99,10.99,4.92,10.99,10.99h0Z"/>
    <polygon points="219.95 45.06 194.67 45.06 194.67 43.4 219.95 43.4 219.95 45.06 219.95 45.06"/>
    <path d="M197.73,48.47c-.06-.1-.13-.18-.22-.25-.09-.07-.19-.13-.3-.17-.11-.04-.23-.06-.35-.06-.23,0-.42.04-.57.13-.16.09-.28.2-.38.35-.1.15-.17.31-.21.5-.04.19-.07.38-.07.58s.02.38.07.56c.04.18.12.34.21.49.1.14.22.26.38.35.16.09.35.13.57.13.31,0,.54-.09.72-.28.17-.19.28-.43.32-.74h.97c-.03.28-.09.54-.2.77-.11.23-.25.42-.42.59-.17.16-.38.28-.61.37-.23.08-.49.13-.77.13-.35,0-.66-.06-.94-.18-.28-.12-.51-.29-.7-.5-.19-.21-.34-.46-.44-.75-.1-.29-.15-.6-.15-.93s.05-.65.15-.95c.1-.29.25-.54.44-.76.19-.22.43-.39.7-.51.28-.12.59-.18.94-.18.25,0,.49.04.71.11.22.07.42.18.6.32.18.14.32.31.44.51.11.2.19.44.22.7h-.97c-.02-.11-.06-.22-.11-.32h0Z"/>
    <path d="M201.36,49.28c-.11-.12-.27-.18-.49-.18-.14,0-.26.02-.36.07-.1.05-.17.11-.23.18-.06.07-.1.15-.12.23-.02.08-.04.15-.04.22h1.47c-.04-.23-.12-.4-.23-.52h0ZM200.34,51.01c.14.13.33.2.59.2.18,0,.34-.05.47-.14.13-.09.21-.19.24-.29h.8c-.13.39-.32.68-.59.85-.26.17-.58.25-.95.25-.26,0-.49-.04-.7-.12-.21-.08-.38-.2-.53-.35-.14-.15-.26-.34-.33-.55-.08-.21-.12-.45-.12-.7s.04-.48.12-.69c.08-.21.2-.4.34-.55.15-.16.33-.28.53-.37.21-.09.43-.13.68-.13.28,0,.52.05.73.16.21.11.38.25.51.44.13.18.23.39.29.62.06.23.08.48.06.73h-2.37c.01.29.09.51.22.64h0Z"/>
    <path d="M203.75,48.51v.61h.01c.04-.1.1-.2.17-.28.07-.09.15-.16.25-.22.09-.06.19-.11.3-.14.11-.03.22-.05.33-.05.06,0,.13.01.2.03v.84s-.09-.02-.15-.02c-.06,0-.12,0-.17,0-.17,0-.31.03-.42.08-.11.06-.21.13-.28.23-.07.1-.12.21-.15.33-.03.13-.04.27-.04.41v1.48h-.9v-3.29h.86Z"/>
    <path d="M207.41,48.51v.6h-.66v1.63c0,.15.03.25.08.31.05.05.15.08.31.08.05,0,.1,0,.15,0,.05,0,.09-.01.13-.02v.7c-.08.01-.16.02-.25.03-.09,0-.18,0-.27,0-.14,0-.27,0-.4-.03-.13-.02-.24-.06-.33-.11-.1-.06-.17-.13-.23-.24-.06-.1-.08-.24-.08-.4v-1.94h-.55v-.6h.55v-.99h.9v.99h.66Z"/>
    <path d="M208.79,48.51v3.29h-.9v-3.29h.9ZM207.89,48v-.74h.9v.74h-.9Z"/>
    <path d="M212.75,48.51v3.29h-.9v-3.29h.9ZM211.85,48v-.74h.9v.74h-.9ZM209.23,49.12v-.6h.54v-.25c0-.29.09-.53.27-.72.18-.19.46-.28.83-.28.08,0,.16,0,.24,0,.08,0,.16.01.24.02v.67c-.11-.01-.22-.02-.33-.02-.12,0-.21.03-.26.09-.05.06-.08.15-.08.29v.2h.62v.6h-.62v2.69h-.9v-2.69h-.54Z"/>
    <g class="st4">
      <path d="M215.34,49.28c-.11-.12-.27-.18-.49-.18-.14,0-.26.02-.36.07-.1.05-.17.11-.23.18-.06.07-.1.15-.12.23-.02.08-.04.15-.04.22h1.47c-.04-.23-.12-.4-.23-.52h0ZM214.32,51.01c.14.13.33.2.59.2.18,0,.34-.05.47-.14.13-.09.21-.19.24-.29h.8c-.13.39-.32.68-.59.85-.26.17-.58.25-.95.25-.26,0-.49-.04-.7-.12-.21-.08-.38-.2-.53-.35-.14-.15-.26-.34-.33-.55-.08-.21-.12-.45-.12-.7s.04-.48.12-.69c.08-.21.2-.4.34-.55.15-.16.33-.28.53-.37.21-.09.43-.13.68-.13.28,0,.52.05.73.16.21.11.38.25.51.44.13.18.23.39.29.62.06.23.08.48.06.73h-2.37c.01.29.09.51.22.64h0Z"/>
      <path d="M218.86,49.28c-.11-.12-.27-.18-.49-.18-.14,0-.26.02-.36.07-.1.05-.17.11-.23.18-.06.07-.1.15-.12.23-.02.08-.04.15-.04.22h1.47c-.04-.23-.12-.4-.23-.52h0ZM217.84,51.01c.14.13.33.2.59.2.18,0,.34-.05.47-.14.13-.09.21-.19.24-.29h.8c-.13.39-.32.68-.59.85-.26.17-.58.25-.95.25-.26,0-.49-.04-.7-.12-.21-.08-.38-.2-.53-.35-.14-.15-.26-.34-.33-.55-.08-.21-.12-.45-.12-.7s.04-.48.12-.69c.08-.21.2-.4.34-.55.15-.16.33-.28.53-.37.21-.09.43-.13.68-.13.28,0,.52.05.73.16.21.11.38.25.51.44.13.18.23.39.29.62.06.23.08.48.06.73h-2.37c.01.29.09.51.22.64h0Z"/>
    </g>
    <polygon points="214.53 48.04 215.22 47.01 216.35 47.01 215.24 48.04 214.53 48.04 214.53 48.04"/>
    <polygon points="197.46 9.45 197.46 10.14 195.49 10.14 195.49 10.94 197.3 10.94 197.3 11.58 195.49 11.58 195.49 12.5 197.51 12.5 197.51 13.19 194.67 13.19 194.67 9.45 197.46 9.45 197.46 9.45"/>
    <path d="M198.69,10.48v.38h.02c.09-.16.22-.27.37-.34.15-.07.3-.11.46-.11.2,0,.36.03.49.08.13.05.23.13.3.22.07.1.12.21.15.35.03.14.04.29.04.46v1.66h-.74v-1.53c0-.22-.03-.39-.1-.5-.07-.11-.19-.16-.37-.16-.2,0-.35.06-.44.18-.09.12-.14.32-.14.59v1.42h-.74v-2.71h.71Z"/>
    <path d="M202.57,10.48v.5h-.54v1.34c0,.13.02.21.06.25.04.04.13.06.25.06.04,0,.08,0,.12,0,.04,0,.08,0,.11-.02v.58c-.06.01-.13.02-.21.02-.08,0-.15,0-.22,0-.12,0-.22,0-.33-.02-.1-.02-.19-.05-.27-.09-.08-.05-.14-.11-.19-.19-.05-.08-.07-.19-.07-.33v-1.6h-.45v-.5h.45v-.81h.74v.81h.54Z"/>
    <path d="M206.69,11.11c-.09-.1-.22-.15-.41-.15-.12,0-.22.02-.3.06-.08.04-.14.09-.19.15-.05.06-.08.12-.1.19-.02.07-.03.13-.03.18h1.21c-.03-.19-.1-.33-.19-.43h0ZM205.85,12.54c.11.11.27.16.48.16.15,0,.28-.04.39-.11.11-.08.17-.15.2-.24h.65c-.1.32-.27.56-.48.7-.22.14-.48.21-.78.21-.21,0-.4-.03-.58-.1-.17-.07-.32-.16-.43-.29-.12-.13-.21-.28-.27-.45-.06-.17-.1-.37-.1-.58s.03-.39.1-.56c.07-.17.16-.33.28-.45.12-.13.27-.23.44-.3.17-.07.36-.11.56-.11.23,0,.43.04.6.13.17.09.31.21.42.36.11.15.19.32.24.51.05.19.07.39.05.6h-1.95c.01.24.07.42.18.52h0Z"/>
    <path d="M203.79,10.48v.5h.01c.03-.08.08-.16.14-.23.06-.07.13-.13.2-.18.08-.05.16-.09.25-.12.09-.03.18-.04.27-.04.05,0,.1,0,.16.03v.69s-.08-.01-.13-.02c-.05,0-.1,0-.14,0-.14,0-.25.02-.35.07-.09.05-.17.11-.23.19-.06.08-.1.17-.12.27-.02.1-.04.22-.04.34v1.22h-.74v-2.71h.71Z"/>
    <path d="M209.64,12.63c.08-.05.15-.11.2-.19.05-.08.09-.17.11-.27.02-.1.03-.21.03-.32s-.01-.21-.03-.32c-.02-.1-.06-.2-.11-.28-.05-.08-.12-.15-.2-.2-.08-.05-.18-.08-.3-.08s-.22.03-.31.08c-.08.05-.15.12-.2.2-.05.08-.09.17-.11.28-.02.1-.03.21-.03.32s.01.21.03.32c.02.1.06.2.11.27.05.08.12.14.2.19.08.05.18.07.3.07s.22-.02.31-.07h0ZM208.67,10.48v.35h.01c.09-.15.21-.25.35-.32.14-.07.29-.1.46-.1.21,0,.4.04.55.12.15.08.28.19.38.32.1.13.18.29.23.46.05.18.07.36.07.55,0,.18-.02.36-.07.52-.05.17-.12.32-.22.44-.1.13-.22.23-.37.31-.15.08-.32.12-.52.12-.17,0-.32-.03-.46-.1-.14-.07-.26-.17-.35-.3h-.01v1.28h-.74v-3.65h.71Z"/>
    <path d="M211.87,10.48v.5h.01c.03-.08.08-.16.14-.23.06-.07.13-.13.2-.18.08-.05.16-.09.25-.12.09-.03.18-.04.27-.04.05,0,.1,0,.16.03v.69s-.08-.01-.13-.02c-.05,0-.1,0-.14,0-.14,0-.25.02-.35.07-.09.05-.17.11-.23.19-.06.08-.1.17-.12.27-.02.1-.04.22-.04.34v1.22h-.74v-2.71h.71Z"/>
    <path d="M213.96,10.48v2.71h-.74v-2.71h.74ZM213.22,10.06v-.61h.74v.61h-.74Z"/>
    <path d="M215.17,12.51c.03.06.08.1.13.14.05.04.11.06.18.08.07.02.14.03.21.03.05,0,.11,0,.16-.02.06-.01.11-.03.16-.06.05-.03.09-.06.12-.1.03-.04.05-.1.05-.16,0-.11-.07-.2-.22-.25-.15-.06-.35-.11-.62-.17-.11-.02-.21-.05-.32-.09-.1-.03-.19-.08-.27-.13-.08-.05-.14-.12-.19-.2-.05-.08-.07-.18-.07-.3,0-.17.03-.32.1-.43.07-.11.16-.2.27-.26.11-.06.24-.11.38-.14.14-.03.28-.04.43-.04s.29.01.43.04c.14.03.26.08.37.14.11.07.2.15.27.26.07.11.11.25.13.42h-.71c-.01-.14-.06-.24-.16-.29-.1-.05-.21-.08-.35-.08-.04,0-.09,0-.14,0-.05,0-.09.02-.13.03-.04.02-.07.04-.1.08-.03.03-.04.08-.04.13,0,.07.02.12.07.16.05.04.11.08.19.1.08.03.17.05.27.07.1.02.2.04.31.07.11.02.21.05.32.09.1.03.19.08.27.14.08.06.14.13.19.21.05.09.07.19.07.32,0,.18-.04.33-.11.45-.07.12-.16.22-.28.29-.12.07-.25.12-.39.15-.15.03-.3.04-.45.04s-.31-.02-.46-.05c-.15-.03-.28-.08-.4-.16-.12-.07-.21-.17-.29-.29-.08-.12-.12-.27-.12-.45h.71c0,.08.02.15.05.21h0Z"/>
    <path d="M218.99,11.11c-.09-.1-.22-.15-.41-.15-.12,0-.22.02-.3.06-.08.04-.14.09-.19.15-.05.06-.08.12-.1.19-.02.07-.03.13-.03.18h1.21c-.03-.19-.1-.33-.19-.43h0ZM218.15,12.54c.11.11.27.16.48.16.15,0,.28-.04.39-.11.11-.08.17-.15.2-.24h.65c-.1.32-.27.56-.48.7-.22.14-.48.21-.78.21-.21,0-.4-.03-.58-.1-.17-.07-.32-.16-.43-.29-.12-.13-.21-.28-.27-.45-.06-.17-.1-.37-.1-.58s.03-.39.1-.56c.07-.17.16-.33.28-.45.12-.13.27-.23.44-.3.17-.07.36-.11.56-.11.23,0,.43.04.6.13.17.09.31.21.42.36.11.15.19.32.24.51.05.19.07.39.05.6h-1.95c.01.24.07.42.18.52h0Z"/>
    <path d="M218.09,39.83c.12,0,.22-.02.29-.05.08-.03.11-.11.11-.24,0-.06-.01-.1-.04-.13-.03-.03-.06-.06-.1-.08-.04-.02-.09-.03-.14-.04-.05,0-.1,0-.15,0h-.35v.54h.37ZM218.09,38.97c.26,0,.46.05.6.14.14.09.21.25.21.47,0,.1-.01.18-.04.24-.03.07-.07.12-.12.17-.05.04-.11.08-.17.1-.07.02-.14.04-.21.04l.55.91h-.43l-.5-.89h-.26v.89h-.41v-2.07h.78ZM216.76,40.59c.07.18.17.33.3.46.13.13.27.23.44.3.17.07.35.11.55.11s.37-.04.54-.11c.17-.07.32-.17.44-.3.13-.13.23-.28.3-.46.07-.18.11-.37.11-.58s-.04-.41-.11-.58c-.07-.18-.17-.33-.3-.46-.13-.13-.27-.23-.44-.3s-.35-.11-.54-.11-.38.04-.55.11c-.17.07-.32.17-.44.3-.13.13-.22.28-.3.46-.07.18-.11.37-.11.58s.04.41.11.58h0ZM216.3,39.24c.1-.23.24-.42.42-.58.17-.16.38-.28.61-.37.23-.09.47-.13.72-.13s.49.04.72.13c.23.09.43.21.61.37.17.16.31.35.42.58.1.23.16.48.16.76s-.05.54-.16.77c-.1.23-.24.42-.42.58-.17.16-.38.28-.61.37-.23.09-.47.13-.72.13s-.49-.04-.72-.13c-.23-.09-.43-.21-.61-.37-.17-.16-.31-.36-.42-.58-.1-.23-.16-.48-.16-.77s.05-.53.16-.76h0Z"/>
  </g>
</svg>